<svg width="46" height="46" viewBox="0 0 46 46" fill="none" xmlns="http://www.w3.org/2000/svg">
<path d="M18.0857 24.7423C18.2534 21.7521 19.7176 19.1177 21.9266 17.2503C24.0929 15.416 27.0088 14.2949 30.1902 14.2949C33.3686 14.2949 36.2844 15.416 38.4523 17.2503C40.6597 19.1177 42.124 21.7521 42.2931 24.7391C42.4608 27.8114 41.2258 30.6656 39.0595 32.7813C36.8505 34.9334 33.7085 36.2838 30.1902 36.2838C26.672 36.2838 23.5237 34.9334 21.3162 32.7813C19.1483 30.6656 17.9165 27.8115 18.0857 24.7423Z" fill="white"/>
<path d="M23.9786 25.009C24.0646 23.4748 24.8159 22.123 25.9494 21.1648C27.0609 20.2237 28.5571 19.6484 30.1895 19.6484C31.8203 19.6484 33.3165 20.2237 34.4288 21.1648C35.5615 22.123 36.3128 23.4748 36.3996 25.0074C36.4856 26.5838 35.8519 28.0483 34.7404 29.1339C33.6069 30.2382 31.9948 30.9311 30.1895 30.9311C28.3843 30.9311 26.7689 30.2382 25.6362 29.1339C24.5238 28.0483 23.8918 26.5839 23.9786 25.009Z" fill="#265787"/>
<path d="M14.0894 28.1103C14.1 28.7107 14.2915 29.8774 14.5787 30.7886C15.1823 32.7172 16.2062 34.5013 17.631 36.0737C19.093 37.6899 20.8934 38.9881 22.9729 39.9098C25.1587 40.8777 27.527 41.371 29.987 41.367C32.443 41.3637 34.8114 40.8607 36.9971 39.8854C39.0766 38.9548 40.8754 37.651 42.335 36.034C43.7589 34.4551 44.7812 32.6677 45.3865 30.7391C45.6908 29.7646 45.8831 28.7756 45.9601 27.7833C46.0356 26.8056 46.0039 25.8263 45.8652 24.8478C45.5942 22.9412 44.9346 21.1521 43.9188 19.5213C42.9898 18.0228 41.7922 16.7108 40.3683 15.6066L40.3715 15.6041L26.0017 4.57057C25.9887 4.56083 25.9782 4.5503 25.9644 4.54137C25.0216 3.81765 23.4362 3.82009 22.3993 4.54544C21.351 5.2789 21.2309 6.49185 22.164 7.25695L22.1599 7.26101L28.1534 12.1348L9.88582 12.1543H9.86148C8.35156 12.1559 6.90005 13.1465 6.61284 14.3985C6.3175 15.6739 7.34304 16.7319 8.91301 16.7376L8.91058 16.7433L18.1697 16.7254L1.64736 29.4076C1.62626 29.4231 1.60354 29.4393 1.58407 29.4547C0.0254633 30.6482 -0.478374 32.6328 0.503361 33.8887C1.4997 35.1658 3.61814 35.1682 5.19297 33.896L14.2103 26.516C14.2103 26.516 14.0789 27.5123 14.0894 28.1103ZM37.2608 31.4466C35.4028 33.3394 32.8016 34.4129 29.987 34.4186C27.1684 34.4234 24.5672 33.3597 22.7092 31.4701C21.8013 30.5492 21.1344 29.4896 20.723 28.361C20.3198 27.2519 20.1632 26.0746 20.2671 24.8868C20.3652 23.7258 20.7109 22.6183 21.2626 21.6162C21.8046 20.6313 22.551 19.7412 23.4727 18.9883C25.2788 17.5165 27.5782 16.7197 29.983 16.7165C32.3903 16.7132 34.688 17.5027 36.4957 18.9696C37.4158 19.7193 38.1614 20.6061 38.7034 21.5895C39.2576 22.5907 39.6008 23.6941 39.703 24.8584C39.8052 26.0446 39.6486 27.2203 39.2454 28.3302C38.8332 29.462 38.1687 30.5216 37.2608 31.4466Z" fill="#EA7600"/>
</svg>
