<svg width="46" height="46" viewBox="0 0 46 46" fill="none" xmlns="http://www.w3.org/2000/svg">
<g id="Figma 1">
<path id="Vector" d="M34.7303 28.4846C37.7568 25.5014 37.7568 20.6646 34.7303 17.6814C31.7037 14.6982 26.7967 14.6982 23.7701 17.6814C20.7436 20.6646 20.7436 25.5014 23.7701 28.4846C26.7967 31.4678 31.7037 31.4678 34.7303 28.4846Z" fill="#13BDFE"/>
<path id="Vector_2" d="M37 7.63897C37 11.8583 33.5306 15.2779 29.25 15.2779H21.5V0H29.25C33.5306 0 37 3.41969 37 7.63897Z" fill="#FF7362"/>
<path id="Vector_3" d="M21.5 30.7217V38.3606C21.5 39.6843 21.1586 40.929 20.5583 42.0142C19.2434 44.3887 16.6878 45.9996 13.75 45.9996C10.8122 45.9996 8.25659 44.3887 6.94169 42.0142C6.34143 40.9294 6 39.6843 6 38.3606C6 34.1414 9.46939 30.7217 13.75 30.7217H21.5Z" fill="#02D084"/>
<path id="Vector_4" d="M21.5 15.2775V30.7216H13.75C9.46939 30.7216 6 27.3019 6 23.0826C6 15.9418 13.4624 15.2725 13.4624 15.2725C13.5577 15.2758 13.6534 15.2775 13.75 15.2775H21.5Z" fill="#A358FF"/>
<path id="Vector_5" d="M21.5 0V15.2779H13.75C13.6534 15.2779 13.5581 15.2763 13.4624 15.2729C9.3152 15.1234 6 11.7631 6 7.63897C6 3.51489 9.46939 0 13.75 0H21.5Z" fill="#F24D18"/>
</g>
</svg>
